<svg width="100%" viewBox="0 0 680 900" role="img" xmlns="http://www.w3.org/2000/svg">
<title>Data Engineering Project mind map</title>
<desc>Mind map of Python PySpark AWS Databricks ETL project structure</desc>
<defs>
  <marker id="arrow" viewBox="0 0 10 10" refX="8" refY="5" markerWidth="5" markerHeight="5" orient="auto-start-reverse">
    <path d="M2 1L8 5L2 9" fill="none" stroke="context-stroke" stroke-width="1.5" stroke-linecap="round" stroke-linejoin="round"/>
  </marker>
</defs>

<!-- Center node -->
<g onclick="sendPrompt('Explain the data engineering project architecture')">
  <rect x="210" y="28" width="260" height="52" rx="10" stroke-width="1" style="fill:#3C3489;stroke:#AFA9EC;"/>
  <text x="340" y="50" text-anchor="middle" dominant-baseline="central" style="fill:#CECBF6;font-family:sans-serif;font-size:14px;font-weight:500;">Data Engineering Project</text>
  <text x="340" y="68" text-anchor="middle" dominant-baseline="central" style="fill:#AFA9EC;font-family:sans-serif;font-size:12px;">Python + PySpark + AWS + Databricks</text>
</g>

<!-- Arrow down to structure -->
<path d="M340 80 L340 118" fill="none" stroke="#9c9a92" stroke-width="0.5" marker-end="url(#arrow)" opacity="0.4"/>

<!-- Project Structure -->
<g onclick="sendPrompt('Explain the project folder structure')">
  <rect x="240" y="118" width="200" height="40" rx="8" stroke-width="0.5" style="fill:#444441;stroke:#B4B2A9;"/>
  <text x="340" y="138" text-anchor="middle" dominant-baseline="central" style="fill:#D3D1C7;font-family:sans-serif;font-size:14px;font-weight:500;">Project structure</text>
</g>
<!-- Structure branches left -->
<path d="M240 135 L180 155" fill="none" stroke="#9c9a92" stroke-width="0.5" opacity="0.3"/>
<g><rect x="60" y="141" width="120" height="28" rx="6" stroke-width="0.5" style="fill:#444441;stroke:#B4B2A9;"/><text x="120" y="155" text-anchor="middle" dominant-baseline="central" style="fill:#B4B2A9;font-family:sans-serif;font-size:12px;">docs/</text></g>
<path d="M240 140 L180 183" fill="none" stroke="#9c9a92" stroke-width="0.5" opacity="0.3"/>
<g><rect x="60" y="169" width="120" height="28" rx="6" stroke-width="0.5" style="fill:#444441;stroke:#B4B2A9;"/><text x="120" y="183" text-anchor="middle" dominant-baseline="central" style="fill:#B4B2A9;font-family:sans-serif;font-size:12px;">resources/</text></g>
<path d="M440 135 L500 155" fill="none" stroke="#9c9a92" stroke-width="0.5" opacity="0.3"/>
<g><rect x="500" y="141" width="120" height="28" rx="6" stroke-width="0.5" style="fill:#444441;stroke:#B4B2A9;"/><text x="560" y="155" text-anchor="middle" dominant-baseline="central" style="fill:#B4B2A9;font-family:sans-serif;font-size:12px;">src/main/</text></g>
<path d="M440 140 L500 183" fill="none" stroke="#9c9a92" stroke-width="0.5" opacity="0.3"/>
<g><rect x="500" y="169" width="120" height="28" rx="6" stroke-width="0.5" style="fill:#444441;stroke:#B4B2A9;"/><text x="560" y="183" text-anchor="middle" dominant-baseline="central" style="fill:#B4B2A9;font-family:sans-serif;font-size:12px;">src/test/</text></g>

<!-- Arrow down -->
<path d="M340 158 L340 210" fill="none" stroke="#9c9a92" stroke-width="0.5" marker-end="url(#arrow)" opacity="0.4"/>

<!-- ENV CONFIGS -->
<g onclick="sendPrompt('How are DEV QA PROD environments configured?')">
  <rect x="210" y="210" width="260" height="52" rx="10" stroke-width="1" style="fill:#634806;stroke:#EF9F27;"/>
  <text x="340" y="230" text-anchor="middle" dominant-baseline="central" style="fill:#FAC775;font-family:sans-serif;font-size:14px;font-weight:500;">Environment configs</text>
  <text x="340" y="248" text-anchor="middle" dominant-baseline="central" style="fill:#EF9F27;font-family:sans-serif;font-size:12px;">DEV / QA / PROD</text>
</g>
<path d="M210 232 L150 258" fill="none" stroke="#9c9a92" stroke-width="0.5" opacity="0.3"/>
<g><rect x="30" y="244" width="120" height="28" rx="6" stroke-width="0.5" style="fill:#634806;stroke:#EF9F27;"/><text x="90" y="258" text-anchor="middle" dominant-baseline="central" style="fill:#EF9F27;font-family:sans-serif;font-size:12px;">config.py</text></g>
<path d="M210 240 L150 286" fill="none" stroke="#9c9a92" stroke-width="0.5" opacity="0.3"/>
<g><rect x="30" y="272" width="120" height="28" rx="6" stroke-width="0.5" style="fill:#634806;stroke:#EF9F27;"/><text x="90" y="286" text-anchor="middle" dominant-baseline="central" style="fill:#EF9F27;font-family:sans-serif;font-size:12px;">requirement.txt</text></g>
<path d="M470 232 L510 258" fill="none" stroke="#9c9a92" stroke-width="0.5" opacity="0.3"/>
<g><rect x="510" y="244" width="140" height="28" rx="6" stroke-width="0.5" style="fill:#634806;stroke:#EF9F27;"/><text x="580" y="258" text-anchor="middle" dominant-baseline="central" style="fill:#EF9F27;font-family:sans-serif;font-size:12px;">table_scripts.sql</text></g>

<!-- Arrow down -->
<path d="M340 262 L340 310" fill="none" stroke="#9c9a92" stroke-width="0.5" marker-end="url(#arrow)" opacity="0.4"/>

<!-- AWS OPERATIONS -->
<g onclick="sendPrompt('What AWS S3 operations are implemented?')">
  <rect x="224" y="310" width="232" height="40" rx="8" stroke-width="0.5" style="fill:#0C447C;stroke:#85B7EB;"/>
  <text x="340" y="330" text-anchor="middle" dominant-baseline="central" style="fill:#B5D4F4;font-family:sans-serif;font-size:14px;font-weight:500;">AWS S3 operations</text>
</g>
<path d="M224 326 L170 350" fill="none" stroke="#9c9a92" stroke-width="0.5" opacity="0.3"/>
<g><rect x="40" y="336" width="130" height="28" rx="6" stroke-width="0.5" style="fill:#0C447C;stroke:#85B7EB;"/><text x="105" y="350" text-anchor="middle" dominant-baseline="central" style="fill:#85B7EB;font-family:sans-serif;font-size:12px;">aws_read.py</text></g>
<path d="M224 332 L170 378" fill="none" stroke="#9c9a92" stroke-width="0.5" opacity="0.3"/>
<g><rect x="40" y="364" width="130" height="28" rx="6" stroke-width="0.5" style="fill:#0C447C;stroke:#85B7EB;"/><text x="105" y="378" text-anchor="middle" dominant-baseline="central" style="fill:#85B7EB;font-family:sans-serif;font-size:12px;">aws_download.py</text></g>
<path d="M456 326 L510 350" fill="none" stroke="#9c9a92" stroke-width="0.5" opacity="0.3"/>
<g><rect x="510" y="336" width="130" height="28" rx="6" stroke-width="0.5" style="fill:#0C447C;stroke:#85B7EB;"/><text x="575" y="350" text-anchor="middle" dominant-baseline="central" style="fill:#85B7EB;font-family:sans-serif;font-size:12px;">upload_to_s3.py</text></g>
<path d="M456 332 L510 378" fill="none" stroke="#9c9a92" stroke-width="0.5" opacity="0.3"/>
<g><rect x="510" y="364" width="130" height="28" rx="6" stroke-width="0.5" style="fill:#0C447C;stroke:#85B7EB;"/><text x="575" y="378" text-anchor="middle" dominant-baseline="central" style="fill:#85B7EB;font-family:sans-serif;font-size:12px;">aws_delete.py</text></g>

<!-- Arrow down -->
<path d="M340 350 L340 406" fill="none" stroke="#9c9a92" stroke-width="0.5" marker-end="url(#arrow)" opacity="0.4"/>

<!-- DATABASE OPERATIONS -->
<g onclick="sendPrompt('What database operations are implemented?')">
  <rect x="218" y="406" width="244" height="40" rx="8" stroke-width="0.5" style="fill:#085041;stroke:#5DCAA5;"/>
  <text x="340" y="426" text-anchor="middle" dominant-baseline="central" style="fill:#9FE1CB;font-family:sans-serif;font-size:14px;font-weight:500;">Database operations (MySQL)</text>
</g>
<path d="M218 422 L160 448" fill="none" stroke="#9c9a92" stroke-width="0.5" opacity="0.3"/>
<g><rect x="30" y="434" width="130" height="28" rx="6" stroke-width="0.5" style="fill:#085041;stroke:#5DCAA5;"/><text x="95" y="448" text-anchor="middle" dominant-baseline="central" style="fill:#5DCAA5;font-family:sans-serif;font-size:12px;">database_read.py</text></g>
<path d="M218 428 L160 476" fill="none" stroke="#9c9a92" stroke-width="0.5" opacity="0.3"/>
<g><rect x="30" y="462" width="130" height="28" rx="6" stroke-width="0.5" style="fill:#085041;stroke:#5DCAA5;"/><text x="95" y="476" text-anchor="middle" dominant-baseline="central" style="fill:#5DCAA5;font-family:sans-serif;font-size:12px;">database_write.py</text></g>
<path d="M462 422 L510 448" fill="none" stroke="#9c9a92" stroke-width="0.5" opacity="0.3"/>
<g><rect x="510" y="434" width="130" height="28" rx="6" stroke-width="0.5" style="fill:#085041;stroke:#5DCAA5;"/><text x="575" y="448" text-anchor="middle" dominant-baseline="central" style="fill:#5DCAA5;font-family:sans-serif;font-size:12px;">database_delete.py</text></g>
<path d="M462 428 L510 476" fill="none" stroke="#9c9a92" stroke-width="0.5" opacity="0.3"/>
<g><rect x="510" y="462" width="130" height="28" rx="6" stroke-width="0.5" style="fill:#085041;stroke:#5DCAA5;"/><text x="575" y="476" text-anchor="middle" dominant-baseline="central" style="fill:#5DCAA5;font-family:sans-serif;font-size:12px;">parquet_write.py</text></g>

<!-- Arrow down -->
<path d="M340 446 L340 502" fill="none" stroke="#9c9a92" stroke-width="0.5" marker-end="url(#arrow)" opacity="0.4"/>

<!-- TRANSFORMATIONS -->
<g onclick="sendPrompt('What PySpark transformations are implemented?')">
  <rect x="210" y="502" width="260" height="52" rx="10" stroke-width="1" style="fill:#712B13;stroke:#F0997B;"/>
  <text x="340" y="522" text-anchor="middle" dominant-baseline="central" style="fill:#F5C4B3;font-family:sans-serif;font-size:14px;font-weight:500;">Transformations (PySpark)</text>
  <text x="340" y="540" text-anchor="middle" dominant-baseline="central" style="fill:#F0997B;font-family:sans-serif;font-size:12px;">Customer mart + Sales mart</text>
</g>
<path d="M210 524 L150 550" fill="none" stroke="#9c9a92" stroke-width="0.5" opacity="0.3"/>
<g><rect x="10" y="536" width="140" height="28" rx="6" stroke-width="0.5" style="fill:#712B13;stroke:#F0997B;"/><text x="80" y="550" text-anchor="middle" dominant-baseline="central" style="fill:#F0997B;font-family:sans-serif;font-size:11px;">customer_mart_transform</text></g>
<path d="M210 530 L150 578" fill="none" stroke="#9c9a92" stroke-width="0.5" opacity="0.3"/>
<g><rect x="10" y="564" width="140" height="28" rx="6" stroke-width="0.5" style="fill:#712B13;stroke:#F0997B;"/><text x="80" y="578" text-anchor="middle" dominant-baseline="central" style="fill:#F0997B;font-family:sans-serif;font-size:11px;">sales_mart_transform</text></g>
<path d="M470 524 L510 550" fill="none" stroke="#9c9a92" stroke-width="0.5" opacity="0.3"/>
<g><rect x="510" y="536" width="150" height="28" rx="6" stroke-width="0.5" style="fill:#712B13;stroke:#F0997B;"/><text x="585" y="550" text-anchor="middle" dominant-baseline="central" style="fill:#F0997B;font-family:sans-serif;font-size:12px;">dimension_tables_join</text></g>
<path d="M470 530 L510 578" fill="none" stroke="#9c9a92" stroke-width="0.5" opacity="0.3"/>
<g><rect x="510" y="564" width="150" height="28" rx="6" stroke-width="0.5" style="fill:#712B13;stroke:#F0997B;"/><text x="585" y="578" text-anchor="middle" dominant-baseline="central" style="fill:#F0997B;font-family:sans-serif;font-size:12px;">main.py (orchestration)</text></g>

<!-- Arrow down -->
<path d="M340 554 L340 606" fill="none" stroke="#9c9a92" stroke-width="0.5" marker-end="url(#arrow)" opacity="0.4"/>

<!-- UTILITIES -->
<g onclick="sendPrompt('What utility modules are built in this project?')">
  <rect x="224" y="606" width="232" height="52" rx="10" stroke-width="1" style="fill:#3B6D11;stroke:#97C459;"/>
  <text x="340" y="626" text-anchor="middle" dominant-baseline="central" style="fill:#C0DD97;font-family:sans-serif;font-size:14px;font-weight:500;">Utility components</text>
  <text x="340" y="644" text-anchor="middle" dominant-baseline="central" style="fill:#97C459;font-family:sans-serif;font-size:12px;">Logging, Spark, Encrypt, S3 client</text>
</g>
<path d="M224 628 L160 654" fill="none" stroke="#9c9a92" stroke-width="0.5" opacity="0.3"/>
<g><rect x="20" y="640" width="140" height="28" rx="6" stroke-width="0.5" style="fill:#3B6D11;stroke:#97C459;"/><text x="90" y="654" text-anchor="middle" dominant-baseline="central" style="fill:#97C459;font-family:sans-serif;font-size:12px;">encrypt_decrypt.py</text></g>
<path d="M224 636 L160 682" fill="none" stroke="#9c9a92" stroke-width="0.5" opacity="0.3"/>
<g><rect x="20" y="668" width="140" height="28" rx="6" stroke-width="0.5" style="fill:#3B6D11;stroke:#97C459;"/><text x="90" y="682" text-anchor="middle" dominant-baseline="central" style="fill:#97C459;font-family:sans-serif;font-size:12px;">logging_config.py</text></g>
<path d="M456 628 L510 654" fill="none" stroke="#9c9a92" stroke-width="0.5" opacity="0.3"/>
<g><rect x="510" y="640" width="140" height="28" rx="6" stroke-width="0.5" style="fill:#3B6D11;stroke:#97C459;"/><text x="580" y="654" text-anchor="middle" dominant-baseline="central" style="fill:#97C459;font-family:sans-serif;font-size:12px;">spark_session.py</text></g>
<path d="M456 636 L510 682" fill="none" stroke="#9c9a92" stroke-width="0.5" opacity="0.3"/>
<g><rect x="510" y="668" width="140" height="28" rx="6" stroke-width="0.5" style="fill:#3B6D11;stroke:#97C459;"/><text x="580" y="682" text-anchor="middle" dominant-baseline="central" style="fill:#97C459;font-family:sans-serif;font-size:12px;">my_sql_session.py</text></g>

<!-- Arrow down to result -->
<path d="M340 658 L340 726" fill="none" stroke="#9c9a92" stroke-width="0.5" marker-end="url(#arrow)" opacity="0.4"/>

<!-- Final result -->
<g onclick="sendPrompt('What is the final output of the data engineering project?')">
  <rect x="190" y="726" width="300" height="52" rx="10" stroke-width="1.5" style="fill:#27500A;stroke:#97C459;"/>
  <text x="340" y="746" text-anchor="middle" dominant-baseline="central" style="fill:#C0DD97;font-family:sans-serif;font-size:14px;font-weight:500;">Enterprise-grade ETL pipeline</text>
  <text x="340" y="764" text-anchor="middle" dominant-baseline="central" style="fill:#97C459;font-family:sans-serif;font-size:12px;">DEV + QA + PROD — fully structured</text>
</g>

<!-- move files node -->
<path d="M340 696 L490 720" fill="none" stroke="#9c9a92" stroke-width="0.5" opacity="0.3"/>
<g><rect x="490" y="706" width="150" height="28" rx="6" stroke-width="0.5" style="fill:#3B6D11;stroke:#97C459;"/><text x="565" y="720" text-anchor="middle" dominant-baseline="central" style="fill:#97C459;font-family:sans-serif;font-size:12px;">move_files.py</text></g>

</svg>
